<svg width="558" height="665" viewBox="0 0 558 665" fill="none" xmlns="http://www.w3.org/2000/svg">
<g filter="url(#filter0_d_23_94)">
<mask id="path-1-outside-1_23_94" maskUnits="userSpaceOnUse" x="4.10156" y="0.45459" width="550" height="657" fill="black">
<rect fill="white" x="4.10156" y="0.45459" width="550" height="657"/>
<path fill-rule="evenodd" clip-rule="evenodd" d="M7.43753 656H5.10156V1.45459H287.63C433.049 1.45459 530.528 84.5512 530.528 223.898C530.528 248.652 527.437 271.386 521.529 292.041C510.775 291.351 499.928 291 489 291C259.636 291 66.3431 445.439 7.43753 656ZM499.927 341.13C496.295 341.044 492.653 341 489 341C382.437 341 284.525 378.041 207.437 439.949H244.164L359.221 656H552.261L419.306 411.824C453.469 395.369 480.87 371.692 499.927 341.13ZM182.8 461.237V656H59.6011C83.2852 580.593 126.284 513.739 182.8 461.237ZM182.8 143.358V301.881H245.442C307.765 301.881 345.158 279.828 345.158 223.898C345.158 167.648 307.765 143.358 245.442 143.358H182.8Z"/>
</mask>
<path fill-rule="evenodd" clip-rule="evenodd" d="M7.43753 656H5.10156V1.45459H287.63C433.049 1.45459 530.528 84.5512 530.528 223.898C530.528 248.652 527.437 271.386 521.529 292.041C510.775 291.351 499.928 291 489 291C259.636 291 66.3431 445.439 7.43753 656ZM499.927 341.13C496.295 341.044 492.653 341 489 341C382.437 341 284.525 378.041 207.437 439.949H244.164L359.221 656H552.261L419.306 411.824C453.469 395.369 480.87 371.692 499.927 341.13ZM182.8 461.237V656H59.6011C83.2852 580.593 126.284 513.739 182.8 461.237ZM182.8 143.358V301.881H245.442C307.765 301.881 345.158 279.828 345.158 223.898C345.158 167.648 307.765 143.358 245.442 143.358H182.8Z" fill="url(#paint0_radial_23_94)"/>
<path d="M5.10156 656H4.10156V657H5.10156V656ZM7.43753 656V657H8.19617L8.40056 656.269L7.43753 656ZM5.10156 1.45459V0.454587H4.10156V1.45459H5.10156ZM521.529 292.041L521.465 293.039L522.269 293.091L522.49 292.316L521.529 292.041ZM499.927 341.13L500.775 341.659L501.703 340.172L499.951 340.13L499.927 341.13ZM207.437 439.949L206.811 439.169L204.595 440.949H207.437V439.949ZM244.164 439.949L245.047 439.479L244.764 438.949H244.164V439.949ZM359.221 656L358.338 656.47L358.62 657H359.221V656ZM552.261 656V657H553.944L553.139 655.522L552.261 656ZM419.306 411.824L418.872 410.923L417.925 411.379L418.428 412.302L419.306 411.824ZM182.8 656V657H183.8V656H182.8ZM182.8 461.237H183.8V458.943L182.12 460.504L182.8 461.237ZM59.6011 656L58.647 655.7L58.2388 657H59.6011V656ZM182.8 301.881H181.8V302.881H182.8V301.881ZM182.8 143.358V142.358H181.8V143.358H182.8ZM5.10156 657H7.43753V655H5.10156V657ZM4.10156 1.45459V656H6.10156V1.45459H4.10156ZM287.63 0.454587H5.10156V2.45459H287.63V0.454587ZM531.528 223.898C531.528 153.978 507.064 98.0828 464.279 59.677C421.507 21.283 360.525 0.454587 287.63 0.454587V2.45459C360.154 2.45459 420.62 23.1745 462.943 61.1654C505.253 99.1446 529.528 154.471 529.528 223.898H531.528ZM522.49 292.316C528.427 271.563 531.528 248.736 531.528 223.898H529.528C529.528 248.569 526.448 271.21 520.568 291.766L522.49 292.316ZM521.593 291.043C510.818 290.351 499.95 290 489 290V292C499.907 292 510.732 292.35 521.465 293.039L521.593 291.043ZM489 290C259.176 290 65.4977 444.749 6.47451 655.731L8.40056 656.269C67.1884 446.129 260.096 292 489 292V290ZM499.951 340.13C496.311 340.044 492.661 340 489 340V342C492.645 342 496.279 342.043 499.903 342.13L499.951 340.13ZM489 340C382.201 340 284.07 377.123 206.811 439.169L208.063 440.729C284.98 378.958 382.673 342 489 342V340ZM207.437 440.949H244.164V438.949H207.437V440.949ZM243.281 440.419L358.338 656.47L360.104 655.53L245.047 439.479L243.281 440.419ZM359.221 657H552.261V655H359.221V657ZM553.139 655.522L420.184 411.346L418.428 412.302L551.382 656.478L553.139 655.522ZM419.74 412.725C454.057 396.196 481.609 372.396 500.775 341.659L499.078 340.601C480.131 370.987 452.881 394.542 418.872 410.923L419.74 412.725ZM183.8 656V461.237H181.8V656H183.8ZM59.6011 657H182.8V655H59.6011V657ZM182.12 460.504C125.479 513.122 82.3842 580.124 58.647 655.7L60.5551 656.3C84.1861 581.061 127.089 514.356 183.481 461.97L182.12 460.504ZM183.8 301.881V143.358H181.8V301.881H183.8ZM245.442 300.881H182.8V302.881H245.442V300.881ZM344.158 223.898C344.158 251.616 334.909 270.778 318.082 283.055C301.194 295.377 276.517 300.881 245.442 300.881V302.881C276.69 302.881 301.872 297.358 319.261 284.671C336.711 271.939 346.158 252.11 346.158 223.898H344.158ZM245.442 144.358C276.501 144.358 301.174 150.415 318.064 163.329C334.905 176.204 344.158 196.015 344.158 223.898H346.158C346.158 195.531 336.715 175.071 319.279 161.74C301.891 148.446 276.707 142.358 245.442 142.358V144.358ZM182.8 144.358H245.442V142.358H182.8V144.358Z" fill="black" mask="url(#path-1-outside-1_23_94)"/>
</g>
<defs>
<filter id="filter0_d_23_94" x="0.101562" y="0.45459" width="557.842" height="664.545" filterUnits="userSpaceOnUse" color-interpolation-filters="sRGB">
<feFlood flood-opacity="0" result="BackgroundImageFix"/>
<feColorMatrix in="SourceAlpha" type="matrix" values="0 0 0 0 0 0 0 0 0 0 0 0 0 0 0 0 0 0 127 0" result="hardAlpha"/>
<feOffset dy="4"/>
<feGaussianBlur stdDeviation="2"/>
<feComposite in2="hardAlpha" operator="out"/>
<feColorMatrix type="matrix" values="0 0 0 0 0 0 0 0 0 0 0 0 0 0 0 0 0 0 0.25 0"/>
<feBlend mode="normal" in2="BackgroundImageFix" result="effect1_dropShadow_23_94"/>
<feBlend mode="normal" in="SourceGraphic" in2="effect1_dropShadow_23_94" result="shape"/>
</filter>
<radialGradient id="paint0_radial_23_94" cx="0" cy="0" r="1" gradientUnits="userSpaceOnUse" gradientTransform="translate(646 999) rotate(-124.418) scale(785.519 656.645)">
<stop offset="0.929322"/>
<stop offset="0.946346" stop-color="#3A7FEF"/>
</radialGradient>
</defs>
</svg>
